<?xml version="1.0" encoding="utf-8"?>
<svg version="1.1" xmlns:xlink="http://www.w3.org/1999/xlink" width="22px" height="22px" xmlns="http://www.w3.org/2000/svg">
  <g transform="matrix(1 0 0 1 -350 -416 )">
    <path d="M 361 416  C 367.16 416  372 420.84  372 427  C 372 433.16  367.16 438  361 438  C 354.84 438  350 433.16  350 427  C 350 420.84  354.84 416  361 416  Z " fill-rule="nonzero" fill="#ffffff" stroke="none" />
    <path d="M 361 416.5  C 366.88 416.5  371.5 421.12  371.5 427  C 371.5 432.88  366.88 437.5  361 437.5  C 355.12 437.5  350.5 432.88  350.5 427  C 350.5 421.12  355.12 416.5  361 416.5  Z " stroke-width="1" stroke="#797979" fill="none" />
  </g>
</svg>