<?xml version="1.0" standalone="no"?><!DOCTYPE svg PUBLIC "-//W3C//DTD SVG 1.1//EN" "http://www.w3.org/Graphics/SVG/1.1/DTD/svg11.dtd"><svg t="1701532104929" class="icon" viewBox="0 0 1612 1024" version="1.1" xmlns="http://www.w3.org/2000/svg" p-id="9774" xmlns:xlink="http://www.w3.org/1999/xlink" width="314.84375" height="200"><path d="M1562.426276 2.18399c-37.710223 0-63.9181 58.239727-66.684487 92.164368-27.66387 92.164368-162.634438 329.345656-342.303996 404.038106-154.772075 64.500498-255.235604 48.775771-287.84985 40.331011a1004.635291 1004.635291 0 0 0 0-125.652211c0-46.154984-4.659178-79.206029-29.119864-89.834779s-46.009384 9.609555-82.846012 40.47661c-92.164368 107.743495-348.273567 276.638703-351.039954 278.677094a24.751884 24.751884 0 0 0-10.191952 18.491113 22.567894 22.567894 0 0 0 8.881558 18.782312 3328.837196 3328.837196 0 0 1 352.787146 311.58254 22.131096 22.131096 0 0 0 3.203185 3.203185 121.429831 121.429831 0 0 0 63.626902 29.119863 38.583819 38.583819 0 0 0 18.345514-4.367979c24.460685-12.958339 26.353476-46.009384 24.897483-80.225224a848.407223 848.407223 0 0 1 3.203185-101.919523v-5.532774a771.676383 771.676383 0 0 0 408.551685-113.276269c214.322195-125.79781 336.334423-351.039955 336.334424-620.398692 0-24.023887-4.659178-95.94995-49.794967-95.94995z" fill="#333333" p-id="9775"></path></svg>